<?xml version="1.0" standalone="no"?>
<!DOCTYPE svg PUBLIC "-//W3C//DTD SVG 20010904//EN"
 "http://www.w3.org/TR/2001/REC-SVG-20010904/DTD/svg10.dtd">
<svg version="1.0" xmlns="http://www.w3.org/2000/svg"
 width="626.000000pt" height="626.000000pt" viewBox="0 0 626.000000 626.000000"
 preserveAspectRatio="xMidYMid meet">
<metadata>
Created by potrace 1.15, written by Peter Selinger 2001-2017
</metadata>
<g transform="translate(0.000000,626.000000) scale(0.100000,-0.100000)"
fill="#000000" stroke="none">
<path d="M4922 6228 c10 -17 13 -83 13 -248 0 -218 1 -226 24 -272 31 -61 106
-132 165 -158 25 -10 46 -16 46 -13 0 4 -14 34 -30 69 -34 68 -51 150 -49 234
2 50 2 48 10 -25 10 -100 20 -136 59 -205 57 -103 108 -146 80 -68 -10 28 -10
47 5 108 19 83 22 209 6 267 -6 21 -24 59 -40 85 -32 51 -131 135 -171 145
-14 4 -45 28 -68 55 -46 50 -72 64 -50 26z"/>
<path d="M5715 6155 c-22 -22 -66 -58 -97 -80 -109 -76 -153 -179 -128 -296 7
-30 12 -83 11 -119 -1 -64 -1 -65 17 -41 26 35 90 99 165 164 37 32 78 78 92
101 35 59 44 156 20 211 l-17 40 -23 -52 c-31 -70 -39 -68 -14 3 11 31 19 68
17 83 l-3 27 -40 -41z"/>
<path d="M3090 5771 c0 -4 12 -18 26 -32 14 -13 33 -40 42 -59 9 -19 36 -54
59 -77 54 -52 103 -64 240 -56 112 6 122 16 54 54 -20 11 -27 17 -16 13 59
-19 58 -20 41 13 -25 49 -66 93 -107 113 -32 17 -59 20 -163 20 -69 0 -136 4
-150 10 -14 5 -26 6 -26 1z"/>
<path d="M3885 5766 c-32 -14 -95 -79 -95 -98 0 -7 -11 -24 -25 -38 l-25 -27
112 4 c62 3 128 9 145 15 38 11 108 91 100 113 -4 8 -2 17 3 20 24 15 3 20
-88 22 -64 2 -107 -2 -127 -11z"/>
<path d="M3620 5747 c0 -10 10 -58 22 -105 18 -70 23 -115 23 -227 0 -230 -41
-351 -251 -740 -27 -49 -65 -126 -84 -171 l-34 -81 -41 56 c-74 100 -161 159
-257 174 -44 7 -62 -10 -21 -18 93 -20 175 -90 228 -195 48 -96 56 -134 44
-209 -20 -127 -26 -383 -18 -736 5 -198 6 -387 2 -419 l-8 -60 -57 115 c-54
107 -99 191 -154 284 -119 204 -192 411 -208 593 -7 80 8 231 35 334 27 106
19 121 -14 28 -54 -151 -70 -243 -70 -401 l0 -147 -43 19 c-91 38 -214 49
-214 19 0 -6 15 -10 34 -10 44 0 91 -17 143 -52 72 -49 112 -108 149 -219 32
-95 77 -207 109 -274 17 -34 45 -113 45 -125 0 -5 -33 24 -72 64 -40 40 -91
85 -113 102 -22 16 -42 32 -45 35 -17 20 -183 121 -280 169 -199 100 -372 164
-935 346 -99 32 -232 78 -295 102 -63 24 -130 49 -147 55 -37 12 -52 27 -81
78 -39 70 -50 190 -26 267 4 11 -1 8 -15 -8 -28 -35 -44 -114 -39 -197 l4 -71
-76 40 c-126 68 -227 134 -310 203 -90 74 -82 51 15 -44 221 -215 490 -377
950 -572 44 -19 100 -44 125 -56 l45 -22 -255 0 c-305 0 -427 9 -555 44 -132
36 -217 78 -286 142 -67 62 -102 128 -120 223 -10 53 -14 60 -19 39 -11 -40 7
-139 36 -203 17 -37 49 -81 86 -117 65 -64 65 -64 -28 -73 -140 -15 -324 -79
-399 -141 -40 -33 -27 -31 43 4 80 42 198 62 410 69 157 6 190 5 225 -9 80
-31 283 -69 452 -83 230 -20 603 -64 640 -76 17 -5 51 -12 77 -16 l48 -6 -81
-49 c-98 -60 -175 -121 -229 -184 -33 -39 -70 -95 -70 -107 0 -2 35 31 78 72
64 63 98 85 202 137 69 35 149 71 179 81 53 17 55 17 120 -4 229 -75 383 -172
547 -343 54 -57 64 -70 132 -175 82 -128 150 -322 176 -506 23 -163 27 -210
20 -210 -4 0 -22 11 -39 24 -46 35 -124 80 -165 95 -58 21 -160 30 -214 20
-77 -14 -73 -24 9 -21 64 3 83 0 137 -24 83 -37 152 -88 222 -166 l58 -63 -8
-195 c-12 -293 -7 -617 10 -768 9 -74 16 -140 16 -146 0 -10 -42 -14 -162 -19
-359 -13 -816 -75 -1084 -146 -257 -69 -396 -112 -469 -146 -16 -7 -56 -23
-87 -35 -72 -27 -303 -145 -345 -176 -17 -13 -34 -24 -38 -24 -7 0 -115 -72
-148 -99 -54 -43 -175 -152 -203 -182 -41 -45 -88 -109 -80 -109 4 0 37 20 75
44 268 176 706 327 1186 411 161 28 198 34 330 49 138 17 186 23 250 31 206
26 989 35 1325 15 204 -13 646 -65 835 -99 461 -84 900 -239 1155 -407 37 -24
70 -44 74 -44 22 0 -133 167 -229 247 -220 183 -628 385 -958 475 -194 52
-353 90 -461 109 -66 11 -123 22 -126 24 -4 3 -126 16 -271 30 -145 14 -270
28 -277 30 -18 6 -70 122 -94 208 -51 188 -53 213 -52 702 l1 460 26 66 c14
37 38 133 52 215 22 124 27 181 29 365 2 167 5 221 16 234 19 23 104 65 154
75 37 8 35 9 -24 7 -42 -2 -81 -10 -108 -24 l-42 -20 0 122 c0 67 -3 142 -6
166 -6 44 -5 45 58 112 110 116 210 166 332 168 93 1 38 17 -61 18 -99 1 -165
-21 -259 -85 l-64 -44 0 53 c0 165 76 447 154 572 104 165 206 275 341 367 90
61 160 96 285 140 97 34 87 36 245 -35 119 -53 209 -112 268 -176 49 -52 58
-40 16 20 -46 65 -224 206 -294 233 -17 6 -18 9 -5 16 34 19 385 66 670 90
137 12 162 15 265 36 102 20 187 43 201 55 7 6 18 8 23 4 6 -3 79 -8 163 -10
213 -5 311 -24 408 -79 l35 -20 -24 27 c-49 54 -242 122 -401 142 l-55 6 59
62 c74 78 116 174 116 270 0 55 -15 37 -30 -35 -29 -147 -144 -251 -343 -309
-133 -39 -271 -51 -543 -47 l-231 3 151 65 c398 170 596 284 811 465 70 58
152 145 138 145 -5 0 -25 -14 -43 -30 -75 -67 -323 -220 -357 -220 -6 0 -8 24
-5 56 4 52 -20 178 -37 188 -3 2 -6 -37 -6 -87 0 -81 -3 -99 -29 -150 -31 -65
-37 -68 -211 -133 -166 -61 -193 -70 -395 -134 -671 -214 -939 -347 -1163
-576 -31 -32 -57 -53 -57 -46 0 6 26 76 59 154 32 79 72 181 87 227 24 70 38
94 84 141 56 59 136 99 198 101 l27 0 -25 10 c-33 14 -123 2 -179 -22 -24 -10
-44 -19 -45 -19 0 0 -1 62 -1 137 0 108 -5 158 -23 229 -24 100 -71 230 -72
201z"/>
<path d="M5880 5682 c0 -5 7 -15 16 -23 8 -7 24 -29 34 -48 44 -86 106 -115
226 -105 84 7 99 14 67 33 -10 6 -13 11 -6 11 15 0 7 24 -19 63 -32 46 -73 60
-178 62 -52 2 -105 6 -117 10 -14 4 -23 3 -23 -3z"/>
<path d="M4590 5625 c0 -3 6 -16 14 -28 8 -12 17 -38 21 -57 18 -84 82 -137
184 -151 36 -5 73 -12 82 -14 14 -5 15 2 8 52 -4 31 -16 68 -27 82 -26 35 -95
69 -167 82 -33 6 -70 17 -82 25 -24 15 -33 17 -33 9z"/>
<path d="M4148 5508 c-31 -4 -75 -16 -97 -28 -52 -26 -144 -118 -137 -136 3
-8 2 -14 -2 -14 -4 0 -32 -16 -62 -35 l-54 -35 75 0 c41 0 102 -7 134 -16 97
-25 199 -35 256 -24 64 12 151 70 190 126 16 24 26 44 22 44 -4 0 -33 -7 -63
-16 -52 -14 -246 -21 -258 -9 -3 3 37 5 90 5 100 0 173 16 233 51 45 27 44 37
-2 37 -21 -1 -69 9 -108 21 -98 31 -151 38 -217 29z"/>
<path d="M5987 5379 c-41 -12 -114 -78 -137 -124 -7 -17 -27 -44 -42 -60 l-28
-31 138 3 c75 2 154 8 175 14 47 13 102 60 129 112 22 43 22 43 -37 22 -11 -4
-2 4 19 17 58 34 57 48 -1 48 -26 0 -77 2 -113 5 -36 2 -82 -1 -103 -6z"/>
<path d="M3120 5245 c0 -8 11 -22 24 -30 13 -9 27 -27 30 -40 8 -32 61 -92 97
-111 21 -10 61 -14 150 -13 l121 1 -22 23 c-14 15 -17 24 -9 27 15 5 -9 54
-43 84 -50 46 -88 57 -191 56 -54 0 -111 3 -127 8 -23 7 -30 5 -30 -5z"/>
<path d="M2600 5165 c0 -3 8 -22 19 -43 10 -20 21 -59 25 -87 9 -67 57 -168
101 -210 39 -36 117 -67 175 -70 19 -1 55 -11 80 -23 49 -23 62 -21 37 5 -17
19 -77 163 -77 184 0 7 -16 45 -35 85 -36 74 -75 113 -138 138 -38 16 -117 27
-117 17 0 -4 16 -23 36 -42 20 -18 40 -43 46 -54 6 -11 -9 0 -33 23 -40 40
-119 91 -119 77z"/>
<path d="M5543 4941 c-54 -18 -133 -67 -133 -82 0 -5 -28 -17 -62 -27 l-63
-18 70 -22 c39 -11 113 -43 165 -70 175 -91 288 -91 412 1 41 31 36 45 -14 40
-24 -2 -68 0 -98 5 l-55 10 90 1 c131 2 216 30 132 44 -19 3 -67 27 -108 53
-128 84 -227 103 -336 65z"/>
<path d="M475 4758 c4 -13 10 -70 14 -128 8 -107 15 -130 59 -187 27 -36 104
-84 167 -103 22 -7 54 -23 72 -36 17 -13 34 -24 37 -24 10 0 -15 65 -40 103
-14 21 -23 41 -21 43 3 3 18 -16 33 -41 16 -25 32 -45 37 -45 13 0 8 106 -8
149 -25 73 -96 141 -183 178 -49 20 -142 82 -149 99 -9 24 -26 16 -18 -8z"/>
<path d="M1986 4725 c4 -16 11 -38 16 -49 6 -10 7 -37 4 -61 -4 -27 -1 -68 10
-111 15 -61 23 -75 73 -124 44 -44 72 -62 131 -84 41 -15 90 -39 108 -53 l33
-25 -7 29 c-3 15 -19 50 -35 77 -38 62 -31 72 7 11 16 -25 32 -45 37 -45 13 0
7 116 -9 163 -20 59 -86 120 -186 172 -83 42 -120 67 -161 104 l-29 26 8 -30z"/>
<path d="M4299 4701 c-6 -18 -42 -55 -88 -93 -99 -81 -135 -122 -168 -194 -23
-50 -27 -72 -26 -144 1 -82 23 -170 44 -170 4 0 9 -35 11 -77 l3 -78 27 50
c14 28 72 97 128 155 55 58 114 125 130 148 37 56 54 136 45 215 -8 64 -31
137 -45 137 -9 0 -20 -25 -20 -48 0 -27 -55 -136 -98 -194 -21 -29 -59 -84
-85 -122 -26 -37 -47 -64 -47 -60 0 11 25 50 94 144 63 85 91 141 112 220 25
98 11 192 -17 111z"/>
<path d="M2380 4583 c0 -5 11 -20 25 -33 14 -13 25 -28 25 -33 0 -19 66 -100
95 -115 23 -13 57 -17 152 -17 68 0 123 3 123 6 0 4 -7 12 -15 19 -11 9 -12
15 -5 20 17 11 -50 101 -91 122 -27 14 -63 19 -155 21 -65 2 -127 7 -136 11
-10 5 -18 4 -18 -1z"/>
<path d="M1370 4468 c0 -7 5 -29 11 -48 5 -19 11 -78 13 -130 3 -105 17 -145
74 -217 36 -46 125 -101 209 -127 28 -10 63 -28 78 -41 24 -24 45 -32 45 -19
0 3 -16 39 -37 80 -26 55 -53 90 -97 131 -34 31 -47 47 -30 35 45 -31 112
-102 136 -144 12 -21 25 -38 30 -38 4 0 8 34 8 76 0 65 -4 85 -31 137 -38 76
-90 120 -218 185 -52 26 -116 67 -143 90 -26 24 -48 38 -48 30z"/>
<path d="M4732 4410 c-4 -12 -41 -49 -81 -83 -100 -84 -136 -148 -135 -237 0
-67 19 -140 35 -140 5 0 9 -28 9 -62 l0 -63 23 41 c12 23 60 83 107 133 47 51
94 109 105 129 27 50 27 163 1 212 l-19 35 -10 -25 c-29 -76 -30 -71 -11 43 7
41 -11 53 -24 17z"/>
<path d="M2406 4170 c-37 -11 -92 -64 -116 -110 -10 -19 -27 -44 -39 -54 -29
-27 -27 -40 7 -31 15 4 74 9 132 10 58 1 117 7 131 13 41 16 96 69 108 103 10
28 9 30 -12 23 -19 -6 -19 -4 6 15 15 13 27 25 27 29 0 11 -211 12 -244 2z"/>
<path d="M2970 4067 c0 -3 13 -34 29 -69 32 -71 48 -82 137 -96 l51 -9 1 34
c2 52 -43 96 -120 117 -35 10 -71 20 -80 22 -10 3 -18 3 -18 1z"/>
<path d="M125 3959 c-27 -5 -66 -7 -85 -4 l-35 6 32 -33 c18 -18 49 -53 70
-77 68 -79 138 -96 269 -65 37 8 76 13 86 11 29 -8 21 12 -14 34 -23 14 -26
19 -10 14 29 -8 28 -2 -5 46 -41 57 -93 79 -184 78 -41 -1 -96 -5 -124 -10z"/>
<path d="M830 3927 c0 -7 8 -17 19 -24 10 -6 29 -32 41 -57 15 -32 35 -54 64
-71 38 -22 55 -25 139 -25 53 0 98 4 102 10 3 5 -7 16 -22 25 -15 9 -20 14
-10 11 45 -14 -10 77 -64 104 -30 16 -58 20 -128 20 -49 0 -101 4 -115 10 -19
7 -26 6 -26 -3z"/>
<path d="M2360 3758 c0 -5 7 -11 15 -15 9 -3 27 -27 40 -54 18 -34 38 -56 70
-74 42 -25 50 -26 137 -21 51 3 95 5 98 6 3 0 -6 10 -20 21 -14 11 -19 18 -12
14 18 -9 15 16 -8 53 -31 50 -85 69 -212 74 -60 3 -108 1 -108 -4z"/>
<path d="M3496 3499 c17 -19 44 -57 59 -84 15 -28 46 -64 69 -80 41 -30 41
-30 185 -30 l143 0 -38 34 c-23 19 -29 28 -16 21 33 -17 36 -8 13 38 -47 92
-123 121 -306 120 -49 -1 -101 2 -115 7 -24 7 -24 7 6 -26z"/>
<path d="M1309 3510 c-33 -4 -75 -19 -104 -35 -54 -32 -155 -130 -155 -151 0
-7 -10 -19 -22 -25 -12 -7 -39 -24 -59 -39 l-36 -26 81 -1 c50 0 115 -9 171
-23 61 -16 121 -24 185 -24 86 -1 100 2 150 28 30 15 68 40 84 55 32 29 80
100 73 107 -3 3 -32 -4 -66 -16 -49 -16 -83 -20 -183 -18 l-123 1 130 7 c123
7 134 9 208 44 84 41 100 64 40 58 -24 -2 -73 8 -128 26 -102 33 -165 42 -246
32z"/>
<path d="M2179 3231 c-53 -17 -134 -78 -154 -115 -11 -21 -38 -48 -62 -62 -24
-14 -43 -28 -43 -32 0 -4 33 -8 73 -8 40 -1 99 -9 131 -18 93 -27 190 -24 252
7 48 24 124 98 124 120 0 5 -12 6 -26 3 -68 -17 -88 -16 -38 3 57 21 94 42 94
53 0 5 -18 8 -40 8 -21 0 -63 9 -92 21 -58 23 -177 34 -219 20z"/>
<path d="M2618 2653 c11 -21 26 -59 32 -85 14 -53 66 -120 112 -144 16 -8 71
-24 121 -34 51 -10 100 -21 110 -25 24 -10 21 2 -10 44 -14 20 -20 30 -13 24
43 -39 43 22 1 90 -41 67 -110 103 -231 122 -24 4 -64 16 -88 26 -24 11 -46
19 -48 19 -3 0 4 -17 14 -37z"/>
</g>
</svg>
